<?xml version="1.0" standalone="no"?>
<!DOCTYPE svg PUBLIC "-//W3C//DTD SVG 20010904//EN"
 "http://www.w3.org/TR/2001/REC-SVG-20010904/DTD/svg10.dtd">
<svg version="1.0" xmlns="http://www.w3.org/2000/svg"
 width="300.000000pt" height="336.000000pt" viewBox="0 0 300.000000 336.000000"
 preserveAspectRatio="xMidYMid meet">
<metadata>
Created by potrace 1.10, written by Peter Selinger 2001-2011
</metadata>
<g transform="translate(0.000000,336.000000) scale(0.100000,-0.100000)"
fill="#000000" stroke="none">
<path d="M1308 3054 c-152 -44 -273 -134 -358 -267 -22 -34 -40 -65 -40 -70 0
-4 -6 -20 -13 -35 -24 -46 -40 -131 -39 -212 0 -106 20 -163 126 -365 14 -26
108 -168 116 -175 3 -3 33 -41 66 -86 100 -136 277 -334 298 -334 15 1 60 44
136 130 36 41 71 81 78 89 7 7 57 72 111 145 105 141 187 273 225 358 12 29
29 67 36 83 21 47 23 64 24 160 1 127 -36 239 -114 344 -66 88 -106 126 -188
174 -137 81 -317 104 -464 61z m306 -19 c250 -65 439 -304 439 -555 1 -94 -11
-136 -73 -266 -43 -89 -146 -248 -237 -367 -90 -116 -266 -317 -278 -316 -14
0 -191 206 -289 335 -206 272 -296 459 -296 611 1 252 178 484 424 554 78 23
232 24 310 4z"/>
<path d="M1315 3001 c-98 -28 -166 -69 -240 -145 -149 -150 -201 -341 -141
-519 57 -170 210 -400 444 -669 47 -54 87 -98 89 -98 6 0 78 83 181 209 180
220 317 439 356 570 20 67 21 188 1 260 -51 194 -223 360 -413 400 -77 16
-207 12 -277 -8z m263 -14 c119 -30 194 -70 267 -143 125 -124 184 -327 140
-480 -33 -117 -164 -335 -314 -524 -42 -52 -78 -97 -81 -100 -3 -3 -32 -36
-65 -73 l-59 -69 -38 44 c-116 132 -246 300 -333 430 -84 125 -167 313 -147
333 3 3 1 5 -5 5 -6 0 -9 28 -8 68 3 86 12 139 30 176 8 16 15 33 15 38 0 16
67 111 105 150 69 70 173 126 280 148 41 9 173 7 213 -3z"/>
<path d="M1405 2886 c-30 -13 -85 -69 -85 -86 0 -5 -15 -16 -32 -25 -43 -20
-77 -71 -87 -131 -6 -39 -17 -59 -52 -94 -48 -50 -66 -93 -64 -156 3 -78 81
-173 156 -190 13 -3 60 -6 104 -8 l80 -2 3 -124 c3 -102 6 -128 21 -143 14
-15 20 -15 35 -4 16 12 18 31 20 142 l2 129 93 3 c78 2 99 7 137 29 71 42 114
110 114 183 0 50 -43 133 -86 166 -23 18 -33 32 -29 43 7 19 -12 79 -37 115
-11 15 -35 34 -54 42 -19 8 -34 20 -34 28 0 8 -19 32 -43 54 -35 32 -50 39
-87 41 -25 1 -59 -4 -75 -12z m124 -20 c31 -16 61 -56 61 -81 0 -9 8 -18 18
-21 72 -23 107 -72 99 -139 -4 -37 -1 -45 15 -51 47 -14 107 -108 108 -167 0
-36 -25 -95 -53 -126 -41 -45 -93 -61 -199 -61 l-98 0 0 -145 c0 -122 -2 -145
-15 -145 -13 0 -15 23 -15 145 l0 145 -97 0 c-78 0 -105 4 -141 21 -86 42
-126 152 -88 242 13 32 78 97 96 97 6 0 7 18 4 43 -7 51 23 103 75 129 19 9
40 30 46 46 7 15 27 40 44 55 37 31 94 36 140 13z"/>
<path d="M1399 2821 c-16 -16 -29 -40 -29 -54 0 -19 -8 -26 -38 -35 -21 -7
-47 -21 -57 -32 -19 -21 -25 -76 -12 -115 6 -16 -1 -24 -35 -40 -83 -39 -111
-130 -67 -216 35 -70 68 -79 307 -79 181 0 207 2 241 19 64 33 99 106 81 172
-14 50 -53 95 -95 111 -34 12 -45 31 -25 43 6 3 10 21 10 40 0 42 -34 84 -81
99 -26 8 -35 17 -37 38 -5 38 -55 78 -99 78 -25 0 -43 -8 -64 -29z m123 -18
c10 -9 18 -23 18 -32 1 -25 24 -49 53 -56 48 -12 89 -90 57 -110 -21 -13 -10
-46 22 -63 67 -36 90 -65 95 -118 7 -68 -15 -110 -70 -134 -37 -17 -66 -18
-245 -16 -184 2 -204 4 -229 22 -14 11 -31 29 -37 40 -6 10 -14 21 -18 24 -11
8 -7 81 5 105 11 24 56 65 70 65 6 0 18 7 28 16 14 12 16 27 12 72 -5 62 -4
64 66 100 23 11 38 28 45 52 18 56 84 73 128 33z"/>
<path d="M830 883 c-11 -14 -22 -36 -25 -47 -25 -120 -34 -210 -22 -222 4 -4
7 8 7 27 0 35 44 226 54 236 8 8 53 -5 69 -21 14 -15 42 -174 52 -301 3 -38 8
-87 11 -107 6 -38 6 -38 -29 -38 l-35 0 -7 64 c-4 36 -4 70 0 76 5 8 -3 10
-26 8 -34 -3 -34 -3 -44 -71 -5 -37 -13 -68 -17 -67 -5 0 -13 0 -19 0 -8 0
-10 17 -7 51 3 29 2 45 -3 37 -5 -7 -9 -28 -9 -45 0 -18 -5 -33 -11 -33 -7 0
0 -9 15 -21 15 -11 33 -18 41 -15 20 7 35 48 35 92 0 45 15 44 18 -1 4 -56 18
-82 51 -93 25 -9 33 -7 52 9 24 20 39 24 39 10 0 -13 78 -5 95 9 9 7 22 9 32
5 37 -16 73 -13 88 7 13 19 15 19 30 4 38 -37 75 -12 75 51 0 51 11 55 32 10
27 -57 66 -95 93 -93 13 2 32 9 40 16 13 10 19 10 33 -2 46 -40 81 -24 82 37
1 43 15 64 23 33 4 -12 7 -32 7 -44 0 -43 68 -72 98 -42 17 17 15 115 -8 283
-21 159 -32 187 -83 209 -29 12 -34 11 -53 -6 -22 -19 -44 -79 -44 -117 0 -11
-4 -21 -10 -21 -5 0 -10 -25 -10 -55 0 -32 4 -55 11 -55 5 0 8 4 5 8 -6 9 46
218 57 228 12 12 57 -6 71 -29 16 -24 42 -190 52 -340 l7 -97 -31 0 c-28 0
-31 3 -37 43 -16 108 -16 107 -40 107 -21 0 -24 -6 -30 -67 -9 -79 -11 -84
-30 -76 -9 3 -16 19 -16 37 -1 21 -3 24 -6 11 -9 -37 -26 -43 -19 -6 3 18 6
44 6 57 0 18 6 24 23 24 18 0 19 2 7 10 -13 9 -13 12 4 25 13 10 23 39 32 91
7 42 16 85 20 96 4 14 2 19 -7 16 -16 -5 -37 -65 -44 -126 -3 -25 -11 -53 -19
-62 -7 -8 -16 -24 -20 -34 -8 -24 -13 -19 -20 24 -13 74 -17 118 -19 197 -3
89 -8 99 -47 105 -47 6 -71 -56 -38 -98 9 -13 14 -112 5 -120 -3 -3 -9 11 -13
32 -19 106 -67 155 -127 129 -11 -5 -24 -2 -35 8 -30 27 -66 30 -86 8 -9 -10
-19 -25 -20 -33 -2 -7 -7 -32 -11 -56 -11 -58 -21 -61 -24 -5 -1 33 -8 54 -23
70 -46 49 -86 14 -92 -81 -5 -78 -13 -79 -21 -4 -13 126 -22 142 -89 168 -21
8 -28 5 -46 -17z m646 -121 c1 -53 9 -146 18 -206 18 -117 16 -126 -31 -126
-25 0 -54 36 -87 112 -31 71 -41 102 -29 95 6 -4 8 5 6 21 -4 22 -2 24 7 12 9
-12 10 -10 4 10 -3 14 -10 32 -15 40 -7 12 -9 11 -10 -5 -1 -11 0 -28 1 -39 1
-11 -3 -15 -9 -12 -8 5 -11 -28 -11 -108 0 -108 -1 -116 -19 -116 -27 0 -28 5
-36 88 -7 84 2 111 22 67 l14 -30 -6 38 c-4 25 -2 37 6 37 6 0 9 7 5 15 -3 8
-1 26 4 39 6 16 4 36 -5 62 -12 34 -14 36 -16 14 -1 -14 -1 -39 0 -56 1 -20
-3 -33 -12 -37 -9 -3 -18 -19 -22 -36 -4 -17 -11 -34 -17 -38 -8 -4 -9 0 -3
13 4 10 7 36 6 56 -1 20 3 39 9 43 5 3 10 15 10 26 0 12 4 17 11 14 6 -4 10
-1 8 6 -4 35 2 59 16 59 8 0 15 -5 15 -10 0 -6 8 -10 18 -8 14 2 25 -20 57
-114 23 -67 45 -118 52 -118 15 0 17 71 6 183 -5 55 -8 65 -19 56 -11 -9 -14
-8 -14 4 0 32 13 47 39 47 l26 0 1 -98z m-267 67 c17 -6 31 -14 31 -17 -1 -4
-9 -60 -19 -125 -10 -68 -14 -120 -9 -123 5 -3 6 -26 2 -51 -5 -33 -3 -47 7
-54 17 -10 12 -15 -28 -22 -29 -6 -34 -3 -39 19 -3 13 -4 54 -2 89 2 36 1 65
-2 65 -4 0 -14 -24 -24 -52 -9 -29 -20 -60 -22 -68 -3 -8 4 -4 15 10 25 30 26
17 3 -30 -13 -25 -26 -36 -50 -41 -45 -9 -62 10 -63 74 -4 148 5 317 16 317 2
0 16 -5 31 -12 l27 -12 -5 -139 c-3 -76 -2 -135 2 -130 4 4 24 69 44 143 50
179 47 170 50 170 2 0 17 -5 35 -11z m68 -191 c-3 -7 -5 -2 -5 12 0 14 2 19 5
13 2 -7 2 -19 0 -25z m160 -50 c-3 -8 -6 -5 -6 6 -1 11 2 17 5 13 3 -3 4 -12
1 -19z"/>
<path d="M1183 510 c0 -30 2 -43 4 -27 2 15 2 39 0 55 -2 15 -4 2 -4 -28z"/>
<path d="M1778 886 c-27 -20 -22 -45 18 -82 l37 -33 -8 -128 c-10 -164 -8
-204 12 -225 20 -23 35 -23 61 0 19 17 21 30 24 200 3 202 2 199 70 200 35 1
39 -2 35 -20 -3 -11 -3 -26 0 -34 10 -26 23 -3 23 42 0 47 4 50 44 34 l25 -9
-2 -198 -2 -198 -32 -3 -33 -3 -1 93 c-1 51 -1 100 0 108 1 11 -2 10 -10 -3
-12 -20 -15 -179 -4 -197 26 -43 101 -19 107 33 4 28 5 29 12 12 16 -36 59
-75 84 -75 61 0 124 57 138 126 4 22 0 34 -15 48 -19 17 -24 18 -48 5 -14 -8
-28 -22 -31 -31 -7 -30 -20 -20 -26 20 -9 56 -5 212 6 212 5 0 18 -5 29 -11
16 -8 25 -7 40 7 25 23 24 36 -7 73 -34 41 -96 58 -130 36 -14 -9 -30 -27 -36
-40 l-11 -25 -23 25 c-16 17 -34 25 -57 25 -19 0 -40 6 -46 14 -16 19 -219 21
-243 2z m249 -19 c11 -12 -18 -27 -52 -27 -75 -1 -71 10 -78 -207 -4 -108 -8
-197 -10 -198 -1 -2 -13 -6 -25 -10 l-24 -7 7 201 8 201 -32 0 c-17 0 -31 4
-31 9 0 5 -3 16 -6 24 -3 9 2 17 13 20 27 8 221 3 230 -6z m235 -2 c39 -14 68
-44 68 -72 0 -11 -54 9 -65 24 -20 27 -29 -3 -33 -108 -4 -99 13 -239 29 -239
5 0 18 19 30 43 12 23 27 45 33 49 39 26 48 -16 15 -72 -29 -49 -47 -60 -96
-60 -40 0 -45 3 -57 33 -18 42 -30 161 -16 152 5 -3 10 -1 10 4 0 6 -3 11 -7
11 -10 0 -14 99 -7 157 4 33 35 93 48 93 1 0 23 -7 48 -15z"/>
<path d="M2181 584 c0 -11 3 -14 6 -6 3 7 2 16 -1 19 -3 4 -6 -2 -5 -13z"/>
<path d="M628 863 c-35 -3 -51 -9 -59 -24 -13 -25 -15 -178 -5 -309 9 -105 22
-130 66 -130 42 0 53 22 52 103 -2 69 0 73 29 97 35 30 32 51 -10 67 -28 10
-29 13 -28 69 l2 59 37 3 c20 2 42 10 49 19 11 13 10 18 -10 34 -13 11 -35 18
-50 17 -14 -1 -47 -3 -73 -5z m-14 -21 c-13 -9 -26 -70 -16 -76 4 -2 9 7 10
22 1 15 8 32 15 40 18 17 112 21 128 5 10 -11 3 -13 -39 -13 -67 0 -76 -15
-66 -111 5 -55 10 -69 21 -65 19 8 63 -3 63 -15 0 -5 -7 -9 -15 -9 -8 0 -25
-5 -38 -11 -22 -10 -23 -14 -19 -100 l4 -89 -33 6 c-19 4 -35 8 -37 9 -6 5
-15 384 -9 399 4 9 14 16 24 16 11 0 14 -3 7 -8z"/>
<path d="M843 768 c-14 -18 -32 -75 -39 -127 -4 -25 -14 -56 -24 -70 -21 -30
-39 -138 -21 -127 6 4 11 17 11 30 0 33 20 86 41 107 10 10 21 39 24 66 4 26
11 65 17 87 10 41 7 54 -9 34z"/>
<path d="M2060 755 c-12 -30 -3 -162 10 -170 5 -3 6 5 3 17 -4 19 -3 20 6 8 8
-11 10 8 7 73 -2 48 -6 90 -9 94 -4 3 -11 -7 -17 -22z"/>
<path d="M890 725 c-1 -25 -3 -27 -9 -11 -5 14 -11 -2 -20 -54 -6 -40 -10 -75
-7 -77 2 -2 20 -1 40 2 39 8 39 4 10 120 -10 42 -12 45 -14 20z m10 -119 c-7
-7 -10 -6 -11 2 -1 7 -2 18 -3 25 -4 24 8 30 16 7 5 -14 5 -27 -2 -34z"/>
<path d="M1644 728 c-4 -13 -12 -51 -19 -85 l-12 -63 25 0 c22 0 24 3 20 35
-4 39 8 35 14 -5 4 -25 4 -25 13 4 5 18 4 36 -4 47 -6 10 -11 35 -11 54 0 39
-15 47 -26 13z m13 -20 c-3 -8 -6 -5 -6 6 -1 11 2 17 5 13 3 -3 4 -12 1 -19z"/>
<path d="M800 539 c0 -5 5 -7 10 -4 6 3 10 8 10 11 0 2 -4 4 -10 4 -5 0 -10
-5 -10 -11z"/>
<path d="M1551 504 c0 -11 3 -14 6 -6 3 7 2 16 -1 19 -3 4 -6 -2 -5 -13z"/>
</g>
</svg>
